<svg id="Layer_1" data-name="Layer 1" xmlns="http://www.w3.org/2000/svg" viewBox="0 0 83.68805 103.65997"><title>Untitled-35</title><path d="M41.84406,103.66A41.82188,41.82188,0,0,1,12.501,32.016a1.3172,1.3172,0,0,1,.208-.166,19.29341,19.29341,0,0,1-3.154-15.022A19.2282,19.2282,0,0,1,20.942,2.467a1.27829,1.27829,0,0,1,.437-.077,1.29251,1.29251,0,0,1,1.268,1.539A20.79576,20.79576,0,0,1,29.448.061,1.32339,1.32339,0,0,1,29.843,0a1.29184,1.29184,0,0,1,.668,2.397,22.18087,22.18087,0,0,0-6.666,6.236,18.32379,18.32379,0,0,1,3.973-.532c.172,0,.25995.005.25995.005a1.29255,1.29255,0,0,1,.234,2.545,24.00871,24.00871,0,0,0-7.306,3.622,21.71949,21.71949,0,0,0,4.523,21.444c-.217-4.563,1.124-11.617,9.312-14.902a1.29184,1.29184,0,0,1,1.153,2.302l-.061.037a10.80321,10.80321,0,0,0-3.09,3.045,11.85041,11.85041,0,0,1,2.103-.40594l.098-.011a1.17042,1.17042,0,0,1,.155-.01,1.29206,1.29206,0,0,1,.689,2.384s-.078.049-.09595.06c-2.622,1.512-4.08105,3.272-4.335,5.229a7.68009,7.68009,0,0,0,1.733,5.268c2.196-2.557,3.624-6.895,4.025-8.535a1.292,1.292,0,0,1,2.547.299,20.74473,20.74473,0,0,1-2.877,11.375,11.385,11.385,0,0,0,4.811,1.168c.053,0,.129-.001.145-.001h.055s.043.001.096.001a11.382,11.382,0,0,0,4.811-1.168,20.74473,20.74473,0,0,1-2.877-11.375,1.292,1.292,0,0,1,2.547-.299c.401,1.64,1.829,5.978,4.025,8.535a7.67959,7.67959,0,0,0,1.733-5.268c-.254-1.957-1.713-3.717-4.335-5.229-.01794-.011-.07794-.049-.07794-.049a1.30239,1.30239,0,0,1-.536-1.53,1.28825,1.28825,0,0,1,1.209-.86505,1.13017,1.13017,0,0,1,.153.01l.098.011a11.87424,11.87424,0,0,1,2.104.40594,10.81912,10.81912,0,0,0-3.091-3.045l-.061-.037a1.29171,1.29171,0,0,1,1.153-2.302c8.188,3.285,9.529,10.339,9.312,14.902a21.80259,21.80259,0,0,0,1.722-2.16,21.94895,21.94895,0,0,0,2.801-19.285,23.70835,23.70835,0,0,0-7.306-3.621,1.29255,1.29255,0,0,1,.234-2.545s.088-.005.25995-.005a18.32379,18.32379,0,0,1,3.973.532,22.18087,22.18087,0,0,0-6.666-6.236A1.29184,1.29184,0,0,1,53.846,0a1.32189,1.32189,0,0,1,.394.061,20.79576,20.79576,0,0,1,6.801,3.868,1.29026,1.29026,0,0,1,1.705-1.462,19.22618,19.22618,0,0,1,11.387,14.361A19.29368,19.29368,0,0,1,70.979,31.85a1.27425,1.27425,0,0,1,.208.166,41.82188,41.82188,0,0,1-29.343,71.644" fill="#eee1c6"/><path d="M70.28058,32.9361l-.902,1.083a39.12847,39.12847,0,1,1-55.07-.001l-.901-1.082a40.55253,40.55253,0,1,0,56.873,0m-53.931,3.02a36.81835,36.81835,0,0,0-10.789,25.86,36.32691,36.32691,0,0,0,.635,6.763l10.941-2.954a24.83795,24.83795,0,0,0,49.13-.135l11.226,3.089a36.26323,36.26323,0,0,0-10.086-32.498l.961-1.038a37.70625,37.70625,0,1,1-53.002-.045Zm-5.528-18.876a18.06222,18.06222,0,0,1,10.557-13.398,21.33908,21.33908,0,0,0-7.599,12.688,17.86589,17.86589,0,0,1,3.854-3.723,21.0784,21.0784,0,0,1,12.209-11.356,23.24172,23.24172,0,0,0-8.773,9.506,19.6845,19.6845,0,0,1,6.938-1.401,25.074,25.074,0,0,0-8.094,4.074,23.241,23.241,0,0,0,2.838,20.832,20.10967,20.10967,0,0,0,4.651,4.82306c-.584-1.46906-2.805-12.808,7.919-17.111l-.076.046a12.10913,12.10913,0,0,0-5.158,7.204,8.12753,8.12753,0,0,1,5.11-2.2l-.051.033c-9.955,5.741-2.039,13.518-2.039,13.518,3.139-2.63,4.969-8.52,5.362-10.131.039,6.224-2.031,9.95-3.438,11.771a12.39347,12.39347,0,0,0,6.809,2.05505h.006a12.3938,12.3938,0,0,0,6.81-2.05505c-1.407-1.821-3.477-5.547-3.439-11.771.394,1.611,2.224,7.501,5.363,10.131,0,0,7.916-7.777-2.039-13.518l-.051-.033a8.12962,8.12962,0,0,1,5.11,2.2,12.11338,12.11338,0,0,0-5.158-7.204l-.076-.046c10.724,4.303,8.503,15.642,7.919,17.111a20.10967,20.10967,0,0,0,4.651-4.82306,23.241,23.241,0,0,0,2.838-20.832,25.074,25.074,0,0,0-8.094-4.074,19.67762,19.67762,0,0,1,6.937,1.401,23.23962,23.23962,0,0,0-8.772-9.506,21.08405,21.08405,0,0,1,12.209,11.356,17.89082,17.89082,0,0,1,3.854,3.723,21.3351,21.3351,0,0,0-7.6-12.688,18.06239,18.06239,0,0,1,10.558,13.398c2.398,12.035-7.214,19.551-14.965,25.989l5.918-2.413c.4-.17.678.216.605.678l-.174,1.461c-.09595.804-.686,4.876-2.922,6.11-.483.268-1.317.573-3.77.755l-4.442.285.737,2.498-4.36,6.985,2.233-2.354,4.559,16.215-12.509,10.291,3.90405-17.705-5.837,7.099-5.836-7.099,3.904,17.705-12.509-10.291,4.558-16.215,2.234,2.354-4.36-6.985.737-2.498-4.442-.285c-2.454-.182-3.287-.487-3.77-.755-2.236-1.234-2.827-5.306-2.922-6.11l-.174-1.461c-.073-.462.205-.848.605-.678l5.918,2.413c-7.751-6.438-17.363-13.954-14.965-25.989m56.082,12.933s4.899-7.745,1.554-12.074c-.343-.444-.715-.85-1.08-1.245,1.372,4.952-.474,13.319-.474,13.319m-50.119,0s-1.847-8.36694-.47406-13.319c-.366.395-.737.801-1.08,1.245-3.345,4.329,1.554,12.074,1.554,12.074" fill="#00471b"/><path d="M28.94983,86.05719l.248-.389.024-.037-3.731-2.369-.017.027-4.711,7.377,1.142.729,2.072-3.243,1.439.919-2.071,3.244,1.143.729,3.982-6.236Zm-2.782,1.837-1.44-.919,1.15405-1.807,1.446.91Zm-1.326-5.125-6.728,5.719-.926-.915,1.621-2.448-2.419,1.66-.927-.915,5.634-6.799.904.892-2.276,2.868,3.08905-2.065.311.308-2.025,3.114,2.83-2.319Zm-6.626-8.158-7.801,4.064-.631-1.212,7.801-4.063Zm-1.229-2.353-8.319,2.858-.444-1.292,5.22-1.793-2.409-.076,1.854-1.54-5.22,1.794-.444-1.293,8.319-2.858.444,1.293-1.854,1.54,2.409.075Zm-3.377,8.946,1.679,2.343-1.145.82-2.473-3.455,7.151-5.121.796,1.111Zm20.47,6.442-3.142,8.169-.887-.342-2.341-.9-.957-.368,3.193-8.15,1.275.491-2.641,6.865,1.594.614,2.641-6.866Zm36.074-5.917.764.61-2.15,2.695-.606.759-6.059-4.834-.782-.625,2.756-3.454.782.624,1.307,1.042-.846,1.06-.988-.789-1.066,1.336,4.65,3.71,1.065-1.335-.997-.796.846-1.06Zm-1.442-6.018,5.593.741-.67,1.264-4.071-.514,3.391,1.797-.64,1.207-7.772-4.119.64-1.207,2.157,1.143-1.607-2.181.674-1.273Zm7.751-5.415-1.269,4.234-.937-.281-1.411-.423.389-1.299,1.011.303.49005-1.636-2.338-.701-.9,2.929-.94-.282-3.747-1.123.278-.93.99-3.303.951.285,1.387.416-.389,1.298-1-.3-.491,1.636,2.023.607.89-2.932.937.281,3.139.94Zm-15.869,10.788,5.638,6.694-.726.612-1.919,1.616-.784.66-5.597-6.729,1.045-.88,4.738,5.626,1.307-1.1-4.738-5.626Zm-9.994,13.907.269,1.37-4.148.815-1.687-8.588,4.148-.815.269,1.37-2.818.554.407,2.071,2.818-.553.267,1.359-2.818.554.475,2.417Zm-6.425,1.014.023,1.396-4.227.07-.145-8.751,4.227-.07.023,1.396-2.871.048.035,2.11,2.871-.047.02295,1.385-2.871.048.04,2.462Zm13.775-7.328.146-.862-1.335-2.466-1.265-.357-3.034,1.638,4.162,7.69,3.034-1.638.379-1.28-1.292-2.388Zm-3.658-1.446,1.511-.813.998,1.857-1.51.812Zm2.819,5.237-1.165-2.165,1.511-.808,1.164,2.166Zm-18.172-3.907-2.278,3.161,1.02,5.549-1.409-.248-.767-4.03-.663,3.779-1.346-.236,1.521-8.664,1.346.237-.422,2.404,1.578-2.201Z" fill="#fff"/><path d="M37.78223,49.66705c-.635-.291-1.83-.84-3.02106-1.387a.39516.39516,0,0,0-.555.298,1.87293,1.87293,0,0,0,.632,1.865,2.1691,2.1691,0,0,0,3.058-.138.39411.39411,0,0,0-.114-.638" fill="#fff"/><path d="M21.379,42.76776s.43195,3.631,1.955,4.472c1.028.568,3.541.513,5.735.682a28.81306,28.81306,0,0,1-7.689-5.15405Z" fill="#fff"/><polygon points="39.308 64.479 40.526 66.132 43.162 66.132 44.38 64.479 39.308 64.479" fill="#fff"/><path d="M62.30853,42.76819a28.86062,28.86062,0,0,1-7.689,5.15405c2.194-.169,4.706-.114,5.735-.682C61.87653,46.39923,62.30853,42.76819,62.30853,42.76819Z" fill="#fff"/><path d="M44.369,54.89185l-1.17-3.836-1.355.658-1.355-.658-1.17,3.836a4.83744,4.83744,0,0,1-2.069,2.597l-.715,3.153,1.76,2.373h1.868l-1.731-2.543.273-1.571a4.28959,4.28959,0,0,0,6.278,0l.273,1.571-1.73,2.543h1.867l1.76-2.373-.715-3.153a4.83744,4.83744,0,0,1-2.069-2.597" fill="#fff"/><path d="M48.92731,48.28046c-1.191.54706-2.387,1.095-3.02106,1.387a.39316.39316,0,0,0-.114.638,2.16885,2.16885,0,0,0,3.057.138,1.87436,1.87436,0,0,0,.633-1.865.39547.39547,0,0,0-.555-.298" fill="#fff"/></svg>